# xmcd
#
# Track frame offsets:
#	150
#	19216
#	40626
#	59543
#	78263
#	88310
#	103134
#	121770
#	138257
#	152444
#	166866
#	196663
#	209847
#	219587
#	233734
#	258756
#	274732
#	292927
#	317280
#	330780
#	348560
#
# Disc length: 4776 seconds
#
# Revision: 0
# Processed by: cddbd v1.5.2PL0 Copyright (c) Steve Scherf et al.
# Submitted via: EasyCDDAExtractor 8.2.3.1
#
DISCID=1c12a615
DTITLE=Various Artist - Country-Blues  vol.6  CD-2
DYEAR=2006
DGENRE=Country
TTITLE0=MARK KNOPFLER and EMMYLOU HARRIS - Beachcombing
TTITLE1=HANK SHIZZOE - End Of The Trail
TTITLE2=LYNYRD SKYNYRD - Can't Take That Away
TTITLE3=BIG HOUSE - Ain't Slept In Our Bed
TTITLE4=J.J.CALE - Cajun Moon
TTITLE5=The UNDERDOGS - Bayou Country
TTITLE6=TONY JOE WHITE - Wild Wolf Calling Me
TTITLE7=GREG HARRIS - Valley Way
TTITLE8=HANK SHIZZOE - She's Back In Town
TTITLE9=GEORGE THOROGOOD - Wanted Man
TTITLE10=BILLY C.FARLOW and BLEU JACKSON - Blue Highway
TTITLE11=J.J.CALE - Louisiana Women
TTITLE12=MICROWAVE DAVE - Jesus Was Smart
TTITLE13=DIRE STRAITS - Iron Hand
TTITLE14=LITTLE FEAT - On Your Way Down
TTITLE15=DAVE KNOPFLER - Means Of Survival
TTITLE16=BIG HOUSE - Highway Of No Return
TTITLE17=RORY GALLAGHER - I'm Not Awake Yet
TTITLE18=HANK SHIZZOE - Small Time
TTITLE19=CHRIS WHITLEY - Kick The Stones (Live)
TTITLE20=J.J.CALE - Precious Memories 
EXTD=
EXTT0=
EXTT1=
EXTT2=
EXTT3=
EXTT4=
EXTT5=
EXTT6=
EXTT7=
EXTT8=
EXTT9=
EXTT10=
EXTT11=
EXTT12=
EXTT13=
EXTT14=
EXTT15=
EXTT16=
EXTT17=
EXTT18=
EXTT19=
EXTT20=
PLAYORDER=
